# xmcd
#
# Track frame offsets:
#	150
#	19208
#	38644
#	56319
#	74674
#	95236
#	111728
#	131080
#	147519
#	169185
#
# Disc length: 2523 seconds
#
# Revision: 1
# Processed by: cddbd v1.5.2PL0 Copyright (c) Steve Scherf et al.
# Submitted via: audiograbber 1.83.01
#
DISCID=9c09d90a
DTITLE=PORTERDAVIS - PORTERDAVIS
DYEAR=2009
DGENRE=
TTITLE0=Smack You Back
TTITLE1=Jayne
TTITLE2=Strange Way to Grieve
TTITLE3=Hey Now Jack
TTITLE4=Carter's Tune
TTITLE5=Take the Fall
TTITLE6=Grass Growing Through Concrete
TTITLE7=Sunshine
TTITLE8=That Way
TTITLE9=Can't Be Satisfied
EXTD=
EXTT0=
EXTT1=
EXTT2=
EXTT3=
EXTT4=
EXTT5=
EXTT6=
EXTT7=
EXTT8=
EXTT9=
PLAYORDER=
